<svg version="1.1" id="Layer_1" xmlns="http://www.w3.org/2000/svg" xmlns:xlink="http://www.w3.org/1999/xlink" x="0px" y="0px"
	 width="100%" viewBox="0 0 1024 1024" enable-background="new 0 0 1024 1024" xml:space="preserve">
<path fill="#000000" opacity="1.000000" stroke="none" 
	d="
M313.710754,513.770325 
	C331.533966,485.977783 354.897400,463.577942 378.423065,441.407990 
	C398.207367,422.763794 419.571106,405.988770 442.023804,390.630249 
	C442.221405,390.495056 442.264618,390.134155 442.872253,388.787659 
	C387.501923,423.532623 337.086090,462.026581 303.164246,519.291260 
	C299.660858,513.558411 298.952820,507.881989 298.041626,502.460327 
	C289.878418,453.888458 304.784576,413.007935 340.400055,379.657318 
	C365.459412,356.191589 395.645905,341.604340 428.231140,331.680328 
	C448.928741,325.376740 469.951599,320.133087 490.246490,312.519775 
	C512.122070,304.313446 532.102234,292.834778 550.208069,278.067566 
	C551.543884,276.978058 552.881775,274.993042 554.926819,276.135040 
	C556.871948,277.221222 556.238220,279.427826 556.019226,281.159821 
	C551.358093,318.021698 545.360779,354.639526 534.207275,390.182373 
	C522.659302,426.982452 504.777832,460.236328 476.686920,487.157654 
	C439.699188,522.605408 395.490936,539.579834 344.121765,537.036560 
	C339.377777,536.801697 334.471191,536.722412 329.127869,534.505188 
	C334.470490,516.187256 344.782745,500.283234 352.995514,483.402161 
	C343.779633,493.313690 336.479828,504.578217 329.678711,516.150391 
	C317.023590,537.683289 307.731079,560.630493 301.806427,584.898438 
	C301.059296,587.958923 299.788635,589.522400 296.593323,589.684570 
	C291.359436,589.950195 286.212921,591.789490 279.867798,590.768311 
	C286.891327,562.968079 298.551514,537.817505 313.710754,513.770325 
z"/>
<path fill="#000000" opacity="1.000000" stroke="none" 
	d="
M563.000000,583.240662 
	C489.169464,583.239868 415.838898,583.238953 342.508362,583.233948 
	C334.823334,583.233398 334.818420,583.222290 334.802460,575.464722 
	C334.785675,567.298401 334.897705,559.129456 334.716034,550.966919 
	C334.632629,547.220154 335.738861,545.529419 339.810822,545.627441 
	C351.993530,545.920715 350.264648,544.306763 350.374115,555.845886 
	C350.514832,570.682495 350.451233,570.684143 365.298309,570.667114 
	C369.131470,570.662720 372.968353,570.541077 376.796722,570.672119 
	C380.477020,570.798035 382.163330,569.685669 382.031006,565.528870 
	C381.846161,559.722595 382.437714,553.889709 382.748413,548.070984 
	C382.815674,546.811096 382.525757,545.341736 384.296967,544.443298 
	C386.280518,545.640625 386.028564,547.740845 386.078308,549.595825 
	C386.221252,554.926331 386.449890,560.269104 386.231140,565.590027 
	C386.064667,569.639832 387.764008,570.726868 391.547028,570.713562 
	C419.712341,570.614136 447.878845,570.562012 476.043030,570.767212 
	C480.740814,570.801392 482.100525,569.200317 482.066223,564.740295 
	C481.895782,542.576050 481.923157,520.410095 481.924683,498.244751 
	C481.925415,487.658203 485.954803,483.735962 496.724792,483.726990 
	C521.223877,483.706543 545.723022,483.686920 570.222107,483.700439 
	C577.103333,483.704224 581.247009,487.861542 581.255432,494.866302 
	C581.283081,517.865356 581.228882,540.864502 581.237122,563.863647 
	C581.239441,570.188965 581.637512,570.576233 588.115356,570.608643 
	C613.613403,570.736084 639.111633,570.831116 664.609802,570.944275 
	C665.775940,570.949402 666.943115,570.990356 668.107727,571.053040 
	C679.840881,571.685303 679.870850,571.687500 679.880249,559.704712 
	C679.894226,541.872070 679.574402,524.032959 679.982056,506.209930 
	C680.156067,498.601471 677.062805,492.268707 674.243713,485.763275 
	C662.454834,458.559723 650.449524,431.450043 638.631165,404.259125 
	C637.542114,401.753540 635.912109,400.385559 633.548035,399.216034 
	C607.862793,386.509369 582.284790,373.584381 556.534424,361.012085 
	C551.603943,358.604797 549.598694,355.846008 551.698120,350.589081 
	C552.603027,348.323181 552.314453,345.647369 553.838867,343.651978 
	C555.459534,343.101379 556.547485,344.016235 557.707092,344.592255 
	C586.652954,358.970337 615.587524,373.370972 644.553833,387.707703 
	C646.635559,388.738037 647.943665,390.180664 648.874695,392.267456 
	C664.211731,426.644440 679.609497,460.994293 693.982788,495.791718 
	C694.903564,498.020721 695.138062,500.246948 695.132874,502.609375 
	C695.086426,523.775085 695.204956,544.942139 694.997070,566.106018 
	C694.949524,570.951416 696.418884,572.659790 701.440186,573.070251 
	C727.160767,575.172485 752.895020,577.215271 778.491577,580.612061 
	C779.605652,580.759888 780.871826,580.459961 782.743835,583.095032 
	C708.957703,583.143616 636.228821,583.191467 563.000000,583.240662 
M516.515869,570.656860 
	C524.004089,570.660461 531.498047,570.848083 538.978943,570.615662 
	C546.407227,570.384949 553.978821,571.708984 561.829163,569.498169 
	C560.999756,568.105591 560.712280,567.294434 560.161926,566.747986 
	C551.542969,558.189453 542.848083,549.707092 534.268555,541.109497 
	C531.409973,538.244934 529.307739,539.651917 527.109680,541.856506 
	C519.355652,549.633667 511.571686,557.380981 503.841217,565.181396 
	C502.726868,566.305847 501.198151,567.367188 502.030609,569.820557 
	C506.286804,571.573059 510.985352,570.259460 516.515869,570.656860 
M553.248596,515.744934 
	C549.437805,519.699524 545.687195,523.714600 541.793274,527.585510 
	C539.515198,529.850037 538.979614,531.716003 541.622437,534.229187 
	C549.825562,542.030090 557.853943,550.014404 565.975342,557.901550 
	C566.902222,558.801636 567.810791,559.893066 569.356628,559.641479 
	C571.593567,554.571106 571.212219,505.117249 568.574646,501.293213 
	C563.596069,505.983124 558.673889,510.619995 553.248596,515.744934 
M492.059540,538.499878 
	C492.311859,545.478882 491.510254,552.533142 492.699341,560.247803 
	C494.519043,559.171082 495.479553,558.826965 496.140198,558.177734 
	C504.454041,550.007751 512.693787,541.762268 521.025269,533.610474 
	C523.477905,531.210754 522.119568,529.561035 520.312866,527.781006 
	C512.721130,520.301453 505.173035,512.777405 497.550323,505.329681 
	C496.324768,504.132233 495.175598,502.393738 492.058533,503.505463 
	C492.058533,514.661926 492.058533,526.080994 492.059540,538.499878 
M533.685608,521.152649 
	C542.069824,512.806946 550.775940,504.761322 558.610107,495.902771 
	C558.364380,495.425415 558.118713,494.948029 557.873047,494.470673 
	C539.521851,494.470673 521.170593,494.470673 502.361359,494.470673 
	C502.813354,495.707947 502.863983,496.472717 503.272156,496.871674 
	C511.709229,505.117737 520.173889,513.335815 528.669739,521.521362 
	C530.062256,522.863098 531.642273,522.849426 533.685608,521.152649 
z"/>
<path fill="#000000" opacity="1.000000" stroke="none" 
	d="
M430.647156,657.328125 
	C430.542084,655.542114 430.542389,654.199036 430.321442,652.893433 
	C429.324585,647.002930 426.604736,643.960815 422.142914,643.634705 
	C417.328186,643.282715 413.754242,645.986023 411.831543,651.377136 
	C410.108704,656.208008 410.375946,661.213318 410.467743,666.204529 
	C410.629944,675.027588 410.874084,683.849670 410.954803,692.673340 
	C411.011963,698.922058 410.595428,699.266235 404.577179,699.294922 
	C400.413116,699.314758 396.247986,699.249573 392.085052,699.321899 
	C389.549347,699.365967 388.585907,698.318665 388.592896,695.733337 
	C388.650635,674.412781 388.634003,653.091858 388.572479,631.771240 
	C388.563934,628.820923 389.714691,627.510742 392.716675,627.610474 
	C396.210327,627.726562 399.742279,627.906494 403.201538,627.535828 
	C407.546509,627.070129 410.951599,627.356018 410.534760,633.983398 
	C424.340424,623.526062 437.356689,622.070618 449.840637,635.242249 
	C454.233429,631.104309 458.930786,627.568542 465.070465,626.327087 
	C480.007263,623.306702 491.716888,631.736816 493.274200,646.908020 
	C494.911591,662.859863 493.701630,678.863647 494.084259,694.838806 
	C494.158539,697.940247 492.839233,699.406921 489.598450,699.315186 
	C485.271942,699.192566 480.929718,699.173950 476.609863,699.404053 
	C472.783875,699.607788 471.718658,697.794983 471.743988,694.311584 
	C471.833588,681.986206 471.760284,669.659729 471.763824,657.333618 
	C471.764587,654.654663 471.635498,652.007568 470.612610,649.478943 
	C469.317627,646.277588 467.155304,644.251770 463.544250,644.057190 
	C459.699066,643.849854 456.704865,645.183289 454.871460,648.702393 
	C453.367584,651.588928 452.974426,654.716675 452.958984,657.906189 
	C452.901764,669.724243 452.718506,681.544983 452.906647,693.359497 
	C452.978363,697.863708 451.587219,699.845947 446.893036,699.401184 
	C443.590790,699.088318 440.215210,699.094055 436.909515,699.382812 
	C432.236328,699.791016 430.418213,698.216919 430.549622,693.265503 
	C430.863342,681.447205 430.650726,669.614990 430.647156,657.328125 
z"/>
<path fill="#000000" opacity="1.000000" stroke="none" 
	d="
M798.986816,680.997314 
	C798.970825,685.827148 798.930603,690.157532 798.935913,694.487976 
	C798.939819,697.658386 797.817322,699.480530 794.227661,699.340149 
	C789.571289,699.158081 784.900940,699.235291 780.239075,699.328247 
	C777.445984,699.383911 776.540344,698.180908 776.477539,695.420593 
	C775.783997,664.954224 776.051208,634.487183 776.237427,604.019531 
	C776.256348,600.921387 777.529358,599.493164 780.778870,599.639832 
	C784.934875,599.827332 789.110046,599.836975 793.267273,599.674255 
	C796.903564,599.531860 798.327881,600.975525 798.254883,604.655518 
	C798.096497,612.646912 798.221375,620.644165 798.253296,628.638855 
	C798.259094,630.091064 798.030701,631.623108 799.049866,632.871338 
	C801.497131,632.978760 802.699463,631.141052 804.279419,630.051697 
	C816.195557,621.836243 834.962708,625.526917 841.698853,637.470520 
	C844.218323,641.937683 845.105408,646.888611 845.158813,651.897766 
	C845.309631,666.053772 845.151978,680.213074 845.289917,694.369385 
	C845.325745,698.042908 843.948608,699.520691 840.303650,699.326355 
	C836.981812,699.149231 833.643250,699.291626 830.312012,699.283508 
	C823.048584,699.265808 823.043701,699.263245 823.017822,692.202026 
	C822.971985,679.710999 823.182922,667.212463 822.808594,654.731384 
	C822.528198,645.382874 813.001343,640.743652 805.207031,645.966003 
	C801.230042,648.630737 799.371399,652.831909 799.216064,657.519531 
	C798.962585,665.173218 799.042786,672.837891 798.986816,680.997314 
z"/>
<path fill="#000000" opacity="1.000000" stroke="none" 
	d="
M250.291733,614.939392 
	C250.242599,623.067871 250.242615,623.083313 242.480560,623.094543 
	C231.326370,623.110779 220.168472,623.268616 209.019669,623.024048 
	C204.355255,622.921753 202.723999,624.700562 203.126617,629.179443 
	C203.393936,632.153442 203.419312,635.186157 203.171036,638.160767 
	C202.796936,642.642639 204.807922,643.927917 209.033783,643.819336 
	C217.684845,643.597046 226.347702,643.871094 235.002197,643.728394 
	C238.779617,643.666077 240.397217,644.904602 240.284134,648.922852 
	C239.844025,664.560791 242.301651,661.973328 227.107834,662.223816 
	C220.783127,662.328064 214.452728,662.373291 208.130356,662.220215 
	C204.458374,662.131348 203.108200,663.624146 203.171051,667.254089 
	C203.323807,676.074951 203.037415,684.906006 203.307755,693.721252 
	C203.444412,698.177429 201.751389,699.672485 197.469910,699.384338 
	C193.492462,699.116577 189.469513,699.126526 185.490814,699.385803 
	C181.373749,699.654053 179.907303,698.066162 179.939255,693.944580 
	C180.068298,677.297729 179.952255,660.648987 179.936874,644.000977 
	C179.926422,632.680359 180.108475,621.355713 179.851868,610.040894 
	C179.737015,604.976074 181.589401,603.544434 186.577438,603.624390 
	C205.052368,603.920654 223.534470,603.766541 242.013840,603.793823 
	C250.254471,603.806030 250.254715,603.819031 250.289490,611.960754 
	C250.293030,612.793152 250.291107,613.625488 250.291733,614.939392 
z"/>
<path fill="#000000" opacity="1.000000" stroke="none" 
	d="
M528.164185,636.786865 
	C527.520447,642.231628 529.612915,644.063660 534.675293,643.878723 
	C543.322632,643.562805 551.992065,643.911133 560.649475,643.785767 
	C564.248657,643.733643 565.565552,644.930725 565.534363,648.726196 
	C565.424255,662.170349 565.561340,662.178528 551.996887,662.201050 
	C545.668823,662.211548 539.335388,662.341553 533.014648,662.123108 
	C529.272156,661.993713 528.032349,663.488403 528.095093,667.103455 
	C528.251038,676.093323 528.043213,685.089600 528.204529,694.079224 
	C528.273193,697.906250 526.932434,699.584290 522.973389,699.344116 
	C519.157349,699.112671 515.303223,699.099060 511.489410,699.349304 
	C507.140594,699.634705 505.664001,697.909241 505.698364,693.563599 
	C505.860260,673.081848 505.770416,652.598022 505.766357,632.114990 
	C505.764862,624.454651 505.887970,616.790771 505.687103,609.135498 
	C505.589111,605.399963 506.646179,603.705505 510.717194,603.738403 
	C530.199707,603.895813 549.684509,603.913391 569.167236,603.787659 
	C573.512817,603.759644 575.094299,605.442444 575.003296,609.686951 
	C574.687134,624.437927 576.895081,622.950684 562.176514,623.043701 
	C552.684692,623.103638 543.187683,623.250000 533.702271,623.002502 
	C529.267456,622.886902 527.620789,624.508179 528.061584,628.831543 
	C528.313843,631.305908 528.145691,633.823120 528.164185,636.786865 
z"/>
<path fill="#000000" opacity="1.000000" stroke="none" 
	d="
M255.898529,647.930054 
	C256.946167,638.999390 261.704468,633.090393 269.337280,629.654175 
	C281.222321,624.303711 293.410858,624.797607 305.280640,629.464478 
	C314.872650,633.235657 318.943512,641.294250 319.220367,651.225464 
	C319.498810,661.212341 319.440979,671.211914 319.352966,681.204407 
	C319.301849,687.005920 320.536407,692.679810 321.276581,699.137329 
	C314.789032,699.137329 308.848785,699.282166 302.920166,699.081848 
	C299.472198,698.965332 300.112488,695.562134 299.237762,692.850037 
	C290.596436,700.460510 280.921783,702.634155 270.188629,700.418762 
	C259.262421,698.163513 252.964142,690.990356 252.344803,680.064819 
	C251.763092,669.803101 257.567444,661.811035 268.059052,658.449341 
	C275.741028,655.987976 283.747559,655.603943 291.683472,654.749695 
	C293.889984,654.512207 296.955841,655.122864 297.409210,652.062012 
	C297.854797,649.053772 296.865631,646.117065 294.055969,644.220520 
	C287.987335,640.124207 278.514191,642.098083 274.864777,648.495544 
	C273.674652,650.581848 272.307770,651.460022 270.113373,651.162170 
	C265.341034,650.514404 260.152863,651.914978 255.898529,647.930054 
M290.735291,668.429138 
	C286.874695,669.355042 282.801636,669.430115 279.164246,671.243896 
	C275.910309,672.866516 273.904541,675.369690 274.354095,679.171875 
	C274.816284,683.080811 277.619659,684.791870 281.111267,685.480591 
	C291.565613,687.542969 299.681030,678.691772 296.904755,668.265564 
	C295.122925,667.483643 293.336517,668.413696 290.735291,668.429138 
z"/>
<path fill="#000000" opacity="1.000000" stroke="none" 
	d="
M684.816528,677.331665 
	C685.378479,677.454834 685.543884,677.477112 685.706482,677.512634 
	C688.851562,678.199158 693.377014,677.002441 694.711182,680.257507 
	C696.063416,683.556702 692.939758,686.837097 690.770325,689.456787 
	C681.572083,700.564270 669.066711,702.493225 655.848145,700.656738 
	C641.749573,698.697998 632.750732,690.307678 629.062561,676.485840 
	C626.840454,668.158264 626.343018,659.647339 628.452637,651.299072 
	C633.201233,632.507385 648.942505,623.003906 668.969604,626.087891 
	C690.855713,629.458069 698.408936,646.840576 697.255249,666.395325 
	C697.063293,669.648804 694.592224,669.290771 692.478821,669.298035 
	C679.987976,669.340820 667.497009,669.322266 655.006042,669.350342 
	C649.228210,669.363281 648.482483,670.488708 650.646362,675.767578 
	C654.785645,685.865417 667.966248,688.333008 675.322510,680.020142 
	C678.106812,676.873779 680.750366,676.098145 684.816528,677.331665 
M668.055481,643.145264 
	C657.529907,640.261841 649.735901,645.480835 650.403503,655.718445 
	C656.610291,655.718445 662.886841,655.823181 669.156372,655.660645 
	C671.305786,655.604919 674.276367,656.923218 675.391602,654.114746 
	C676.372620,651.644165 674.650269,649.314697 673.342590,647.188782 
	C672.264221,645.435669 670.596497,644.326904 668.055481,643.145264 
z"/>
<path fill="#000000" opacity="1.000000" stroke="none" 
	d="
M734.091492,701.059204 
	C727.293579,700.608459 721.050964,699.735291 715.183411,697.087097 
	C710.666077,695.048218 707.041504,692.062805 704.368225,687.804382 
	C702.283813,684.484009 702.906555,681.693298 704.797119,678.542542 
	C706.716675,675.343384 709.299011,675.759705 712.175842,676.262939 
	C716.353943,676.993958 720.543152,676.283081 723.453674,681.388489 
	C725.972595,685.807007 740.200012,686.442871 744.603516,683.522522 
	C748.337891,681.045837 748.255249,677.068420 744.076111,675.507263 
	C739.264954,673.710022 734.196045,672.586487 729.211731,671.274231 
	C724.859680,670.128479 720.564270,668.886719 716.457825,666.981384 
	C708.836487,663.445435 705.148438,657.267029 704.866882,649.171326 
	C704.576782,640.827698 708.103882,634.034180 715.632324,630.293945 
	C729.178467,623.564087 742.926331,624.033203 756.476685,630.636841 
	C758.748962,631.744263 760.626709,633.458252 762.192139,635.413452 
	C764.144409,637.851746 766.368347,640.139832 764.326294,643.849670 
	C762.384277,647.377625 760.685974,650.222900 755.739807,649.496948 
	C751.978577,648.944824 748.547729,649.303406 745.685852,645.592957 
	C742.856445,641.924622 732.359009,641.075378 728.182495,643.167053 
	C726.614563,643.952332 725.371277,645.003479 725.300354,646.907288 
	C725.228088,648.845032 726.446411,649.955505 728.009705,650.740112 
	C732.228333,652.857422 736.883179,653.537231 741.391907,654.667908 
	C746.237366,655.883057 751.083130,657.031616 755.743835,658.897888 
	C763.020752,661.811829 767.652039,666.800659 768.209229,674.827087 
	C768.805115,683.410217 766.047180,690.581543 758.539001,695.402832 
	C751.220459,700.102417 742.910828,700.719910 734.091492,701.059204 
z"/>
<path fill="#000000" opacity="1.000000" stroke="none" 
	d="
M579.610352,698.766113 
	C577.799866,696.843811 578.057922,694.785767 578.054382,692.813538 
	C578.019104,673.009766 578.093750,653.205322 577.927368,633.402771 
	C577.891968,629.187744 579.100586,627.249207 583.593933,627.571594 
	C586.721008,627.795959 589.902100,627.367737 593.052490,627.139648 
	C596.912109,626.860168 599.736816,627.638550 599.213989,632.450195 
	C599.132568,633.199402 599.456787,633.992676 599.765015,635.736328 
	C604.192932,630.905945 608.545349,627.275452 614.556641,626.268921 
	C621.497498,625.106873 622.940491,626.166443 622.912781,633.209290 
	C622.909546,634.040710 622.901611,634.876038 622.823425,635.702698 
	C622.496277,639.161682 623.163818,643.250793 621.521118,645.904602 
	C619.732422,648.794128 615.341248,646.763672 612.122192,647.255615 
	C604.850342,648.366943 600.531372,653.389465 600.308411,662.183594 
	C600.047058,672.495422 600.003845,682.822876 600.264771,693.133484 
	C600.386047,697.924805 598.789001,699.787292 593.962952,699.376038 
	C589.335083,698.981628 584.663940,699.094543 579.610352,698.766113 
z"/>
<path fill="#000000" opacity="1.000000" stroke="none" 
	d="
M364.107971,628.859680 
	C364.736511,628.528870 365.022064,628.352173 365.328064,628.224609 
	C376.775970,623.453735 379.100067,624.921204 379.127411,636.934265 
	C379.129669,637.932556 379.130585,638.930969 379.123108,639.929199 
	C379.069977,647.026428 379.069244,647.026428 372.019562,647.204163 
	C363.093140,647.429199 357.662262,652.259583 357.270813,661.332092 
	C356.826538,671.629150 357.075928,681.955933 357.017181,692.269836 
	C356.978455,699.069580 356.709564,699.347717 350.060181,699.364929 
	C346.399780,699.374451 342.737732,699.276001 339.079407,699.358887 
	C336.094666,699.426514 334.898132,698.020203 334.899475,695.132019 
	C334.909363,674.001038 334.873291,652.870117 334.866028,631.739136 
	C334.865387,629.840332 335.011597,627.810730 337.542419,627.764832 
	C343.311340,627.659973 349.083527,627.731750 354.685730,627.731750 
	C355.969208,630.529419 354.711731,633.283264 356.534058,635.789307 
	C359.189728,633.648132 360.747650,630.489807 364.107971,628.859680 
z"/>
<path fill="#000000" opacity="1.000000" stroke="none" 
	d="
M553.511108,418.068481 
	C553.531860,412.688263 553.410950,407.701019 553.609802,402.726624 
	C553.793518,398.131805 552.639587,395.307678 547.232849,396.214935 
	C545.323486,396.535370 543.315125,396.266174 541.442322,396.266174 
	C540.350342,389.716797 541.872253,387.770844 547.648560,387.700226 
	C562.104614,387.523438 562.101990,387.523468 562.117615,401.756256 
	C562.126526,409.904358 562.220215,418.053253 562.135437,426.200348 
	C562.072449,432.252106 560.071472,434.190033 553.936462,434.238617 
	C545.004456,434.309357 536.071472,434.256744 527.166626,434.256744 
	C527.034180,427.780304 528.867432,425.779114 534.398132,425.750275 
	C538.056335,425.731232 541.714844,425.788391 545.373108,425.775726 
	C552.618042,425.750702 552.617981,425.740509 553.511108,418.068481 
z"/>
<path fill="#000000" opacity="1.000000" stroke="none" 
	d="
M628.696960,412.131653 
	C628.687927,409.192444 628.687927,406.731445 628.687927,404.311035 
	C634.480164,404.015900 638.370605,409.536072 635.981384,414.050995 
	C635.216614,415.496307 635.388916,416.950867 635.318848,418.417877 
	C634.311157,439.519104 633.327698,460.621521 632.316406,481.722595 
	C632.278564,482.512421 632.018555,483.291565 630.999390,484.090546 
	C629.858215,472.259796 629.787659,460.406372 629.615540,448.548370 
	C629.441650,436.566956 629.019409,424.589203 628.696960,412.131653 
z"/>
<path fill="#000000" opacity="1.000000" stroke="none" 
	d="
M656.788940,521.998352 
	C657.161865,507.658264 657.528992,493.818115 657.919678,479.088287 
	C660.174194,481.582703 659.953796,483.636963 659.991760,485.553955 
	C660.463135,509.327942 660.891113,533.102783 661.321533,556.877625 
	C661.342590,558.040344 661.323730,559.207153 661.250916,560.367432 
	C661.158813,561.834717 660.577026,562.943481 658.910217,563.060486 
	C657.006836,563.194092 656.107239,562.085266 656.038940,560.384827 
	C655.925537,557.563477 655.764771,554.712402 656.033081,551.913086 
	C656.971863,542.120239 656.511719,532.301697 656.788940,521.998352 
z"/>
<path fill="#000000" opacity="1.000000" stroke="none" 
	d="
M637.598877,458.830963 
	C637.603455,455.424774 637.603455,452.480713 637.603455,448.354156 
	C640.933899,453.576263 641.298279,545.005676 638.680847,549.199158 
	C636.015991,548.322998 636.759460,545.990540 636.770386,544.227234 
	C636.946411,515.915039 636.037048,487.591461 637.598877,458.830963 
z"/>
<path fill="#000000" opacity="1.000000" stroke="none" 
	d="
M596.360840,447.946289 
	C595.761292,454.538971 598.541321,460.863617 595.819214,467.656677 
	C593.047913,463.582855 593.016907,442.588867 595.432922,438.100433 
	C596.788696,441.348236 596.155457,444.464905 596.360840,447.946289 
z"/>
</svg>